<svg width="21" height="21" viewBox="0 0 21 21" fill="none" xmlns="http://www.w3.org/2000/svg">
<path d="M1 8.38889C1 9.35921 1.19112 10.32 1.56245 11.2165C1.93377 12.113 2.47803 12.9275 3.16416 13.6136C3.85028 14.2997 4.66482 14.844 5.56128 15.2153C6.45774 15.5867 7.41857 15.7778 8.38889 15.7778C9.35921 15.7778 10.32 15.5867 11.2165 15.2153C12.113 14.844 12.9275 14.2997 13.6136 13.6136C14.2997 12.9275 14.844 12.113 15.2153 11.2165C15.5867 10.32 15.7778 9.35921 15.7778 8.38889C15.7778 7.41857 15.5867 6.45774 15.2153 5.56128C14.844 4.66482 14.2997 3.85028 13.6136 3.16416C12.9275 2.47803 12.113 1.93377 11.2165 1.56245C10.32 1.19112 9.35921 1 8.38889 1C7.41857 1 6.45774 1.19112 5.56128 1.56245C4.66482 1.93377 3.85028 2.47803 3.16416 3.16416C2.47803 3.85028 1.93377 4.66482 1.56245 5.56128C1.19112 6.45774 1 7.41857 1 8.38889ZM20 20L13.6667 13.6667L20 20Z" fill="#FDFDFD"/>
<path d="M20 20L13.6667 13.6667M1 8.38889C1 9.35921 1.19112 10.32 1.56245 11.2165C1.93377 12.113 2.47803 12.9275 3.16416 13.6136C3.85028 14.2997 4.66482 14.844 5.56128 15.2153C6.45774 15.5867 7.41857 15.7778 8.38889 15.7778C9.35921 15.7778 10.32 15.5867 11.2165 15.2153C12.113 14.844 12.9275 14.2997 13.6136 13.6136C14.2997 12.9275 14.844 12.113 15.2153 11.2165C15.5867 10.32 15.7778 9.35921 15.7778 8.38889C15.7778 7.41857 15.5867 6.45774 15.2153 5.56128C14.844 4.66482 14.2997 3.85028 13.6136 3.16416C12.9275 2.47803 12.113 1.93377 11.2165 1.56245C10.32 1.19112 9.35921 1 8.38889 1C7.41857 1 6.45774 1.19112 5.56128 1.56245C4.66482 1.93377 3.85028 2.47803 3.16416 3.16416C2.47803 3.85028 1.93377 4.66482 1.56245 5.56128C1.19112 6.45774 1 7.41857 1 8.38889Z" stroke="#484C52" stroke-width="2" stroke-linecap="round" stroke-linejoin="round"/>
</svg>
