<svg width="12" height="16" viewBox="0 0 12 16" fill="none" xmlns="http://www.w3.org/2000/svg">
<path d="M6 0.500001C6.09856 0.499825 6.19618 0.519076 6.2873 0.556654C6.37841 0.594231 6.46122 0.649399 6.531 0.719001V0.722001C7.49576 1.67544 8.37233 2.71417 9.15 3.8255C10.209 5.366 11.25 7.3955 11.25 9.5C11.25 11.5055 10.71 13.028 9.7215 14.0525C8.7315 15.077 7.392 15.5 6 15.5C4.608 15.5 3.267 15.077 2.2785 14.0525C1.29 13.028 0.75 11.5055 0.75 9.5C0.75 7.3955 1.791 5.366 2.85 3.8255C3.62712 2.71372 4.50319 1.67448 5.4675 0.720501C5.53715 0.650627 5.62141 0.595184 5.71253 0.557347C5.80365 0.519509 5.90134 0.500022 6 0.500001Z" fill="white"/>
</svg>
