<svg width="13" height="13" viewBox="0 0 13 13" fill="none" xmlns="http://www.w3.org/2000/svg">
<circle cx="6.5" cy="6.5" r="6.5" fill="url(#paint0_linear_2697_9854)"/>
<path d="M3 8.92308C3 8.92308 4.07692 7.84615 6.5 7.84615M6.5 7.84615C8.92308 7.84615 10 8.92308 10 8.92308M6.5 7.84615V10M4.07692 10L5.96154 7.86231M8.92308 10L7.03846 7.86231M4.63692 6.76923C4.62872 6.67967 4.62872 6.58956 4.63692 6.5C4.63692 6.00017 4.83548 5.52081 5.18891 5.16738C5.54235 4.81394 6.02171 4.61538 6.52154 4.61538C7.02137 4.61538 7.50073 4.81394 7.85416 5.16738C8.2076 5.52081 8.40615 6.00017 8.40615 6.5C8.41436 6.58956 8.41436 6.67967 8.40615 6.76923M3 6.5H3.53846M4.07692 4.07692L4.34615 4.34615M6.5 3V3.53846M8.92308 4.07692L8.65385 4.34615M10 6.5H9.46154" stroke="#FAFAFA" stroke-width="0.7" stroke-linecap="round" stroke-linejoin="round"/>
<defs>
<linearGradient id="paint0_linear_2697_9854" x1="-0.695719" y1="-3.46667" x2="2.62903" y2="13.4495" gradientUnits="userSpaceOnUse">
<stop stop-color="#A8D261"/>
<stop offset="1" stop-color="#29D890"/>
</linearGradient>
</defs>
</svg>
