<svg width="22" height="22" viewBox="0 0 22 22" fill="none" xmlns="http://www.w3.org/2000/svg">
<path d="M5 14C5 13.2044 5.31607 12.4413 5.87868 11.8787C6.44129 11.3161 7.20435 11 8 11C8.79565 11 9.55871 11.3161 10.1213 11.8787C10.6839 12.4413 11 13.2044 11 14C11 14.7956 10.6839 15.5587 10.1213 16.1213C9.55871 16.6839 8.79565 17 8 17C7.20435 17 6.44129 16.6839 5.87868 16.1213C5.31607 15.5587 5 14.7956 5 14Z" stroke="white" stroke-width="1.5"/>
<path d="M3.5 10.5L3.914 9.5M13.465 6.171C13.465 6.171 14.708 6 15.586 6.878C16.465 7.757 16.293 9 16.293 9M8 8.293C8 8.293 6.757 8.464 5.879 7.586C5 6.707 5.17 5.464 5.17 5.464M18 12.136C18 12.136 16.838 12.609 16.517 13.809C16.195 15.009 16.965 15.999 16.965 15.999M12.42 16.772L14 18M13.5 13V11M11 4H9M11.5 8.5L10.5 7.5" stroke="white" stroke-width="1.5" stroke-linecap="round"/>
<path d="M6 2.33801C7.51952 1.45891 9.24451 0.997307 11 1.00001C16.523 1.00001 21 5.47701 21 11C21 16.523 16.523 21 11 21C5.477 21 1 16.523 1 11C1 9.17901 1.487 7.47001 2.338 6.00001" stroke="white" stroke-width="1.5" stroke-linecap="round"/>
</svg>
