<svg width="16" height="15" viewBox="0 0 16 15" fill="none" xmlns="http://www.w3.org/2000/svg">
<path d="M13.2904 0.63086C12.8694 0.630678 12.4596 0.767763 12.1228 1.02151C11.7859 1.27526 11.5402 1.63195 11.4225 2.03799C11.3048 2.44403 11.3215 2.87747 11.4701 3.27316C11.6187 3.66885 11.8911 4.00541 12.2465 4.23226L10.977 8.69473C10.9376 8.69221 10.8981 8.69088 10.8586 8.69076C10.4402 8.6903 10.0328 8.82611 9.69768 9.07782L7.3524 7.11489C7.46343 6.78403 7.48416 6.42933 7.41243 6.08769C7.3407 5.74605 7.17914 5.42995 6.94454 5.17228C6.70995 4.91462 6.4109 4.72479 6.0785 4.62256C5.7461 4.52032 5.39249 4.50941 5.05447 4.59097C4.71645 4.67252 4.40636 4.84355 4.15646 5.08627C3.90656 5.32899 3.72599 5.63453 3.63352 5.9711C3.54105 6.30768 3.54006 6.66299 3.63067 7.00008C3.72127 7.33716 3.90015 7.64371 4.1487 7.88782L2.77194 10.6535C2.71165 10.6477 2.65112 10.6448 2.59056 10.6447C2.1245 10.6441 1.67367 10.8113 1.31991 11.1161C0.966142 11.4208 0.732891 11.8428 0.662492 12.3056C0.592093 12.7683 0.689212 13.241 0.936221 13.638C1.18323 14.0349 1.56376 14.3298 2.00873 14.469C2.4537 14.6082 2.93362 14.5826 3.36138 14.3967C3.78914 14.2109 4.13639 13.8772 4.34009 13.4562C4.54378 13.0352 4.59044 12.5547 4.47157 12.1021C4.3527 11.6495 4.0762 11.2547 3.69225 10.9894L4.99326 8.37633C5.30929 8.46389 5.64226 8.46962 5.9611 8.39298C6.27993 8.31634 6.57424 8.15982 6.81655 7.93804L9.08724 9.83859C8.93304 10.1799 8.87982 10.5585 8.93393 10.9293C8.98803 11.3001 9.14717 11.6475 9.39238 11.93C9.63759 12.2125 9.95851 12.4182 10.3169 12.5226C10.6753 12.627 11.056 12.6257 11.4136 12.5188C11.7713 12.4119 12.0908 12.2039 12.334 11.9198C12.5773 11.6356 12.734 11.2871 12.7856 10.9159C12.8371 10.5447 12.7813 10.1665 12.6248 9.82629C12.4682 9.48609 12.2176 9.19828 11.9027 8.99719L13.1721 4.53472C13.2112 4.5371 13.2506 4.53869 13.2904 4.53869C13.8064 4.53869 14.3012 4.33283 14.6661 3.9664C15.0309 3.59997 15.2359 3.10298 15.2359 2.58477C15.2359 2.06656 15.0309 1.56958 14.6661 1.20315C14.3012 0.836718 13.8064 0.63086 13.2904 0.63086ZM2.59056 13.5755C2.39818 13.5755 2.21011 13.5182 2.05015 13.4109C1.89019 13.3035 1.76551 13.151 1.69189 12.9725C1.61827 12.7939 1.599 12.5975 1.63654 12.408C1.67407 12.2185 1.76671 12.0444 1.90275 11.9078C2.03878 11.7711 2.2121 11.6781 2.40079 11.6404C2.58948 11.6027 2.78506 11.6221 2.9628 11.696C3.14054 11.7699 3.29246 11.8952 3.39934 12.0558C3.50623 12.2165 3.56328 12.4054 3.56328 12.5986C3.56299 12.8576 3.46041 13.1059 3.27805 13.2891C3.0957 13.4722 2.84845 13.5753 2.59056 13.5755ZM5.50871 7.46956C5.31632 7.46956 5.12826 7.41226 4.96829 7.30491C4.80833 7.19756 4.68366 7.04499 4.61003 6.86647C4.53641 6.68795 4.51715 6.49152 4.55468 6.30201C4.59221 6.1125 4.68486 5.93842 4.82089 5.80179C4.95693 5.66516 5.13025 5.57211 5.31894 5.53442C5.50763 5.49672 5.70321 5.51607 5.88095 5.59001C6.05869 5.66396 6.21061 5.78918 6.31749 5.94984C6.42437 6.1105 6.48142 6.29938 6.48142 6.4926C6.48113 6.75162 6.37856 6.99994 6.1962 7.1831C6.01384 7.36625 5.7666 7.46927 5.50871 7.46956ZM10.8586 11.6216C10.6663 11.6216 10.4782 11.5643 10.3182 11.457C10.1583 11.3496 10.0336 11.1971 9.95997 11.0185C9.88635 10.84 9.86708 10.6436 9.90462 10.4541C9.94215 10.2646 10.0348 10.0905 10.1708 9.95386C10.3069 9.81723 10.4802 9.72418 10.6689 9.68649C10.8576 9.64879 11.0531 9.66814 11.2309 9.74208C11.4086 9.81603 11.5605 9.94124 11.6674 10.1019C11.7743 10.2626 11.8314 10.4514 11.8314 10.6447C11.8311 10.9037 11.7285 11.152 11.5461 11.3352C11.3638 11.5183 11.1165 11.6213 10.8586 11.6216ZM13.2904 3.56173C13.098 3.56173 12.91 3.50443 12.75 3.39708C12.5901 3.28974 12.4654 3.13716 12.3918 2.95864C12.3181 2.78012 12.2989 2.58369 12.3364 2.39418C12.3739 2.20467 12.4666 2.03059 12.6026 1.89396C12.7387 1.75733 12.912 1.66428 13.1007 1.62659C13.2894 1.58889 13.4849 1.60824 13.6627 1.68218C13.8404 1.75613 13.9923 1.88135 14.0992 2.04201C14.2061 2.20267 14.2631 2.39155 14.2631 2.58477C14.2629 2.84379 14.1603 3.09211 13.9779 3.27527C13.7956 3.45842 13.5483 3.56144 13.2904 3.56173Z" fill="white"/>
</svg>
