<svg width="34" height="33" viewBox="0 0 34 33" fill="none" xmlns="http://www.w3.org/2000/svg">
<path d="M1.81152 27.2308C1.81152 27.2308 6.55176 22.4615 17.2173 22.4615M17.2173 22.4615C27.8828 22.4615 32.6231 27.2308 32.6231 27.2308M17.2173 22.4615V32M6.55176 32L14.8472 22.5331M27.8828 32L19.5874 22.5331M9.01669 17.6923C8.98057 17.2957 8.98057 16.8966 9.01669 16.5C9.01669 14.2865 9.89067 12.1636 11.4464 10.5984C13.0021 9.03317 15.112 8.15385 17.3121 8.15385C19.5122 8.15385 21.6222 9.03317 23.1778 10.5984C24.7335 12.1636 25.6075 14.2865 25.6075 16.5C25.6436 16.8966 25.6436 17.2957 25.6075 17.6923M1.81152 16.5H4.18164M6.55176 5.76923L7.73682 6.96154M17.2173 1V3.38462M27.8828 5.76923L26.6978 6.96154M32.6231 16.5H30.253" stroke="#FAFAFA" stroke-width="2" stroke-linecap="round" stroke-linejoin="round"/>
</svg>
