<svg width="13" height="17" viewBox="0 0 13 17" fill="none" xmlns="http://www.w3.org/2000/svg">
<path d="M6.5 0C2.90643 0 0 2.6605 0 5.95C0 10.4125 6.5 17 6.5 17C6.5 17 13 10.4125 13 5.95C13 2.6605 10.0936 0 6.5 0ZM6.5 8.075C5.88432 8.075 5.29385 7.85112 4.8585 7.4526C4.42315 7.05409 4.17857 6.51359 4.17857 5.95C4.17857 5.38642 4.42315 4.84591 4.8585 4.4474C5.29385 4.04888 5.88432 3.825 6.5 3.825C7.11568 3.825 7.70615 4.04888 8.1415 4.4474C8.57685 4.84591 8.82143 5.38642 8.82143 5.95C8.82143 6.51359 8.57685 7.05409 8.1415 7.4526C7.70615 7.85112 7.11568 8.075 6.5 8.075Z" fill="#A4A8B1"/>
</svg>
