<svg width="16" height="16" viewBox="0 0 16 16" fill="none" xmlns="http://www.w3.org/2000/svg">
<path d="M10.5296 9.94619L10.8888 9.58941C11.3849 9.09639 12.1575 8.99479 12.7923 9.33975L14.2966 10.158C15.263 10.6834 15.4764 11.9711 14.7211 12.7216L13.6028 13.8337C13.3177 14.1172 12.9648 14.3236 12.5584 14.3614M1.00225 3.94954C0.974684 3.46124 1.20308 3.02177 1.54489 2.68154L2.78139 1.45291C3.46974 0.767717 4.63063 0.87404 5.23156 1.67659L6.2247 3.00287C6.71064 3.65184 6.65787 4.54023 6.10105 5.09311L5.8758 5.31836" stroke="#A4A8B1" stroke-width="1.5"/>
<path opacity="0.5" d="M12.5584 14.3613C11.2746 14.4811 8.13689 14.3487 4.79282 11.0236C1.63856 7.88743 1.07308 5.19942 1.0022 3.95032" stroke="#A4A8B1" stroke-width="1.5"/>
<path opacity="0.5" d="M10.5294 9.9463C10.5294 9.9463 9.67727 10.7937 7.34997 8.47983C5.02266 6.16591 5.87561 5.31769 5.87561 5.31769" stroke="#A4A8B1" stroke-width="1.5" stroke-linecap="round"/>
</svg>
