<svg width="13" height="13" viewBox="0 0 13 13" fill="none" xmlns="http://www.w3.org/2000/svg">
<circle cx="6.5" cy="6.5" r="6.5" fill="url(#paint0_linear_2697_9861)"/>
<path d="M8.79407 6.88255H6.88231V8.79432C6.88231 9.00461 6.71025 9.17667 6.49996 9.17667C6.28966 9.17667 6.1176 9.00461 6.1176 8.79432V6.88255H4.20584C3.99555 6.88255 3.82349 6.71049 3.82349 6.5002C3.82349 6.28991 3.99555 6.11785 4.20584 6.11785H6.1176V4.20608C6.1176 3.99579 6.28966 3.82373 6.49996 3.82373C6.71025 3.82373 6.88231 3.99579 6.88231 4.20608V6.11785H8.79407C9.00437 6.11785 9.17643 6.28991 9.17643 6.5002C9.17643 6.71049 9.00437 6.88255 8.79407 6.88255Z" fill="#FBFDFF"/>
<defs>
<linearGradient id="paint0_linear_2697_9861" x1="-0.695719" y1="-3.46667" x2="2.62903" y2="13.4495" gradientUnits="userSpaceOnUse">
<stop stop-color="#A8D261"/>
<stop offset="1" stop-color="#29D890"/>
</linearGradient>
</defs>
</svg>
