<svg width="26" height="26" viewBox="0 0 26 26" fill="none" xmlns="http://www.w3.org/2000/svg">
<path d="M20.7656 19.6336C20.8399 19.708 20.8988 19.7962 20.9391 19.8933C20.9793 19.9904 21 20.0945 21 20.1996C21 20.3047 20.9793 20.4088 20.9391 20.5059C20.8988 20.603 20.8399 20.6912 20.7656 20.7656C20.6912 20.8399 20.603 20.8988 20.5059 20.9391C20.4088 20.9793 20.3047 21 20.1996 21C20.0945 21 19.9904 20.9793 19.8933 20.9391C19.7962 20.8988 19.708 20.8399 19.6336 20.7656L13 14.1309L6.36637 20.7656C6.21626 20.9157 6.01268 21 5.8004 21C5.58812 21 5.38454 20.9157 5.23443 20.7656C5.08433 20.6155 5 20.4119 5 20.1996C5 19.9873 5.08433 19.7837 5.23443 19.6336L11.8691 13L5.23443 6.36637C5.08433 6.21626 5 6.01268 5 5.8004C5 5.58812 5.08433 5.38454 5.23443 5.23443C5.38454 5.08433 5.58812 5 5.8004 5C6.01268 5 6.21626 5.08433 6.36637 5.23443L13 11.8691L19.6336 5.23443C19.7837 5.08433 19.9873 5 20.1996 5C20.4119 5 20.6155 5.08433 20.7656 5.23443C20.9157 5.38454 21 5.58812 21 5.8004C21 6.01268 20.9157 6.21626 20.7656 6.36637L14.1309 13L20.7656 19.6336Z" fill="#484C52"/>
</svg>
