<svg width="34" height="34" viewBox="0 0 34 34" fill="none" xmlns="http://www.w3.org/2000/svg">
<circle cx="17" cy="17" r="17" fill="black" fill-opacity="0.15"/>
<path d="M24.7656 23.6336C24.8399 23.708 24.8988 23.7962 24.9391 23.8933C24.9793 23.9904 25 24.0945 25 24.1996C25 24.3047 24.9793 24.4088 24.9391 24.5059C24.8988 24.603 24.8399 24.6912 24.7656 24.7656C24.6912 24.8399 24.603 24.8988 24.5059 24.9391C24.4088 24.9793 24.3047 25 24.1996 25C24.0945 25 23.9904 24.9793 23.8933 24.9391C23.7962 24.8988 23.708 24.8399 23.6336 24.7656L17 18.1309L10.3664 24.7656C10.2163 24.9157 10.0127 25 9.8004 25C9.58812 25 9.38454 24.9157 9.23443 24.7656C9.08433 24.6155 9 24.4119 9 24.1996C9 23.9873 9.08433 23.7837 9.23443 23.6336L15.8691 17L9.23443 10.3664C9.08433 10.2163 9 10.0127 9 9.8004C9 9.58812 9.08433 9.38454 9.23443 9.23443C9.38454 9.08433 9.58812 9 9.8004 9C10.0127 9 10.2163 9.08433 10.3664 9.23443L17 15.8691L23.6336 9.23443C23.7837 9.08433 23.9873 9 24.1996 9C24.4119 9 24.6155 9.08433 24.7656 9.23443C24.9157 9.38454 25 9.58812 25 9.8004C25 10.0127 24.9157 10.2163 24.7656 10.3664L18.1309 17L24.7656 23.6336Z" fill="#F4F4F4"/>
</svg>
