<svg width="17" height="21" viewBox="0 0 17 21" fill="none" xmlns="http://www.w3.org/2000/svg">
<path d="M3.63653 0.871549C3.72864 0.61638 3.8984 0.39563 4.1225 0.239587C4.34661 0.0835445 4.61409 -0.000145555 4.88824 1.90036e-07H11.745C11.9554 -8.29685e-06 12.1629 0.0493955 12.3502 0.144141C12.5375 0.238887 12.6994 0.376262 12.8224 0.544949C12.9455 0.713636 13.0263 0.908807 13.058 1.11438C13.0898 1.31995 13.0717 1.53005 13.0052 1.72735L11.4624 6.30036H15.6701C16.8421 6.30036 17.4393 7.69379 16.6233 8.52648L4.87017 20.514C3.75022 21.6564 1.81847 20.6253 2.17018 19.0733L3.51965 13.1215L1.85141 13.1152C1.55426 13.114 1.26175 13.0423 0.998384 12.9063C0.735015 12.7704 0.508461 12.574 0.3377 12.3337C0.166939 12.0933 0.0569453 11.8161 0.0169341 11.5251C-0.023077 11.2341 0.00805971 10.9379 0.107735 10.6613L3.63653 0.871549ZM5.07525 1.57509L1.60915 11.1905C1.5951 11.2299 1.59079 11.2721 1.59657 11.3135C1.60235 11.3549 1.61805 11.3944 1.64237 11.4286C1.66669 11.4628 1.69893 11.4908 1.7364 11.5102C1.77387 11.5296 1.81549 11.5398 1.85779 11.5402L4.51634 11.5507C4.63554 11.5511 4.75312 11.578 4.86042 11.6293C4.96772 11.6806 5.06201 11.755 5.13634 11.8471C5.21066 11.9392 5.26314 12.0466 5.2899 12.1614C5.31666 12.2762 5.31702 12.3955 5.29095 12.5104L3.72578 19.4177L15.0422 7.87545H10.3562C10.2301 7.87519 10.1058 7.84535 9.99367 7.78839C9.88149 7.73143 9.7846 7.64897 9.71095 7.5478C9.63731 7.44662 9.58901 7.32962 9.57003 7.2064C9.55105 7.08319 9.56194 6.95728 9.60179 6.83904L11.3763 1.57509H5.07525Z" fill="white"/>
</svg>
