<svg width="21" height="21" viewBox="0 0 21 21" fill="none" xmlns="http://www.w3.org/2000/svg">
<path d="M4.14801 5.25755L0.240252 1.35313C0.165039 1.28048 0.10506 1.19359 0.0638155 1.09753C0.0225708 1.00147 0.000885966 0.89817 2.65858e-05 0.793648C-0.000832794 0.689127 0.0191503 0.585481 0.05881 0.488758C0.0984696 0.392036 0.157012 0.304173 0.23102 0.230298C0.305028 0.156422 0.393021 0.0980134 0.489864 0.0584788C0.586706 0.0189442 0.690459 -0.000924193 0.795069 3.30109e-05C0.899679 0.000990215 1.00305 0.0227538 1.09915 0.0640539C1.19525 0.105354 1.28216 0.165363 1.3548 0.240581L20.7885 19.6577C20.9277 19.807 21.0035 20.0043 20.9999 20.2083C20.9963 20.4122 20.9136 20.6068 20.7692 20.751C20.6249 20.8952 20.4302 20.9778 20.226 20.9814C20.0219 20.985 19.8244 20.9093 19.675 20.7703L13.0739 14.1758L6.92756 20.5142C5.82036 21.6561 3.9106 20.6254 4.25831 19.0742L5.59241 13.1252L3.94317 13.1189C3.6494 13.1176 3.36022 13.046 3.09985 12.9101C2.83948 12.7741 2.61551 12.5779 2.44669 12.3376C2.27787 12.0974 2.16913 11.8203 2.12958 11.5295C2.09002 11.2386 2.1208 10.9425 2.21934 10.666L4.14801 5.25755ZM11.9593 13.0622L5.38127 6.48975L3.70366 11.194C3.68957 11.2334 3.68514 11.2757 3.69075 11.3172C3.69637 11.3588 3.71186 11.3984 3.73592 11.4327C3.75999 11.467 3.79194 11.4951 3.82909 11.5145C3.86625 11.534 3.90752 11.5443 3.94947 11.5445L6.57775 11.555C6.6956 11.5555 6.81184 11.5823 6.91792 11.6336C7.024 11.6849 7.11721 11.7593 7.1907 11.8513C7.26418 11.9434 7.31606 12.0507 7.34251 12.1655C7.36896 12.2802 7.36932 12.3994 7.34355 12.5143L5.7962 19.4184L11.9593 13.0622ZM16.9837 7.88149L14.1527 10.8004L15.2662 11.914L18.5468 8.53223C19.3536 7.69991 18.7632 6.30713 17.6035 6.30713H13.4457L14.971 1.73623C15.0368 1.53893 15.0547 1.32884 15.0232 1.12328C14.9918 0.917721 14.9118 0.722579 14.79 0.553946C14.6683 0.385314 14.5081 0.248021 14.3228 0.15339C14.1374 0.0587584 13.9322 0.0094992 13.7241 0.00967407H6.94542C6.38972 0.00967407 5.89495 0.359183 5.70796 0.880822L5.31929 1.97448L6.55149 3.20668L7.12925 1.58404H13.3596L11.6053 6.84556C11.5659 6.96375 11.5552 7.0896 11.5739 7.21276C11.5927 7.33591 11.6404 7.45286 11.7132 7.55399C11.786 7.65512 11.8818 7.73754 11.9927 7.79447C12.1036 7.85141 12.2265 7.88123 12.3512 7.88149H16.9837Z" fill="#FBFDFF"/>
</svg>
