<svg width="20" height="18" viewBox="0 0 20 18" fill="none" xmlns="http://www.w3.org/2000/svg">
<path d="M18.0602 0H1.50504C1.10589 0 0.72308 0.158035 0.440835 0.43934C0.15859 0.720644 2.62054e-05 1.10218 2.62054e-05 1.5V16.5C-0.00167432 16.7859 0.0794216 17.0662 0.233586 17.3074C0.38775 17.5485 0.608437 17.7401 0.869172 17.8594C1.06842 17.9516 1.28537 17.9996 1.50504 18C1.85835 17.9992 2.19993 17.8736 2.46919 17.6456C2.47368 17.6427 2.47779 17.6392 2.48142 17.6353L5.50274 15H18.0602C18.4594 15 18.8422 14.842 19.1244 14.5607C19.4067 14.2794 19.5652 13.8978 19.5652 13.5V1.5C19.5652 1.10218 19.4067 0.720644 19.1244 0.43934C18.8422 0.158035 18.4594 0 18.0602 0ZM18.0602 13.5H5.50274C5.14833 13.4998 4.80523 13.6243 4.53388 13.8516L4.52259 13.8619L1.50504 16.5V1.5H18.0602V13.5ZM8.65386 7.5C8.65386 7.2775 8.72006 7.05999 8.84409 6.87498C8.96812 6.68998 9.14441 6.54578 9.35066 6.46064C9.55692 6.37549 9.78387 6.35321 10.0028 6.39662C10.2218 6.44002 10.4229 6.54717 10.5808 6.7045C10.7386 6.86184 10.8461 7.06229 10.8897 7.28052C10.9332 7.49875 10.9109 7.72495 10.8255 7.93052C10.74 8.13609 10.5954 8.31179 10.4097 8.4354C10.2241 8.55902 10.0059 8.625 9.78262 8.625C9.48326 8.625 9.19615 8.50647 8.98447 8.29549C8.77278 8.08452 8.65386 7.79837 8.65386 7.5ZM4.51507 7.5C4.51507 7.2775 4.58127 7.05999 4.7053 6.87498C4.82933 6.68998 5.00562 6.54578 5.21187 6.46064C5.41813 6.37549 5.64508 6.35321 5.86404 6.39662C6.083 6.44002 6.28413 6.54717 6.44199 6.7045C6.59985 6.86184 6.70735 7.06229 6.7509 7.28052C6.79446 7.49875 6.7721 7.72495 6.68667 7.93052C6.60124 8.13609 6.45656 8.31179 6.27094 8.4354C6.08531 8.55902 5.86708 8.625 5.64383 8.625C5.34446 8.625 5.05736 8.50647 4.84568 8.29549C4.63399 8.08452 4.51507 7.79837 4.51507 7.5ZM12.7926 7.5C12.7926 7.2775 12.8589 7.05999 12.9829 6.87498C13.1069 6.68998 13.2832 6.54578 13.4895 6.46064C13.6957 6.37549 13.9227 6.35321 14.1416 6.39662C14.3606 6.44002 14.5617 6.54717 14.7196 6.7045C14.8774 6.86184 14.9849 7.06229 15.0285 7.28052C15.072 7.49875 15.0497 7.72495 14.9642 7.93052C14.8788 8.13609 14.7341 8.31179 14.5485 8.4354C14.3629 8.55902 14.1447 8.625 13.9214 8.625C13.622 8.625 13.3349 8.50647 13.1233 8.29549C12.9116 8.08452 12.7926 7.79837 12.7926 7.5Z" fill="url(#paint0_linear_2697_8762)"/>
<defs>
<linearGradient id="paint0_linear_2697_8762" x1="-1.04707" y1="-4.8" x2="3.21248" y2="18.7569" gradientUnits="userSpaceOnUse">
<stop stop-color="#A8D261"/>
<stop offset="1" stop-color="#29D890"/>
</linearGradient>
</defs>
</svg>
