<svg width="16" height="19" viewBox="0 0 16 19" fill="none" xmlns="http://www.w3.org/2000/svg">
<path fill-rule="evenodd" clip-rule="evenodd" d="M7.99888 7.96481C8.60242 7.96481 9.18123 7.72506 9.60799 7.2983C10.0348 6.87154 10.2745 6.29272 10.2745 5.68919C10.2745 5.08566 10.0348 4.50685 9.60799 4.08009C9.18123 3.65333 8.60242 3.41357 7.99888 3.41357C7.39535 3.41357 6.81654 3.65333 6.38978 4.08009C5.96302 4.50685 5.72327 5.08566 5.72327 5.68919C5.72327 6.29272 5.96302 6.87154 6.38978 7.2983C6.81654 7.72506 7.39535 7.96481 7.99888 7.96481ZM7.99888 4.55138C8.30065 4.55138 8.59006 4.67126 8.80344 4.88464C9.01682 5.09802 9.13669 5.38743 9.13669 5.68919C9.13669 5.99096 9.01682 6.28036 8.80344 6.49374C8.59006 6.70713 8.30065 6.827 7.99888 6.827C7.69712 6.827 7.40771 6.70713 7.19433 6.49374C6.98095 6.28036 6.86108 5.99096 6.86108 5.68919C6.86108 5.38743 6.98095 5.09802 7.19433 4.88464C7.40771 4.67126 7.69712 4.55138 7.99888 4.55138Z" fill="url(#paint0_linear_2697_8765)"/>
<path fill-rule="evenodd" clip-rule="evenodd" d="M2.87878 5.44555C2.87878 8.48692 5.89739 13.6537 7.99893 13.6537C10.1016 13.6537 13.1191 8.48692 13.1191 5.44555C13.1191 2.44629 10.8355 0 7.99893 0C5.16237 0 2.87878 2.44629 2.87878 5.44555ZM11.9813 5.44555C11.9813 7.94077 9.30968 12.5159 7.99893 12.5159C6.68931 12.5159 4.01659 7.94191 4.01659 5.44555C4.01659 3.05729 5.80864 1.13781 7.99893 1.13781C10.1892 1.13781 11.9813 3.05729 11.9813 5.44555Z" fill="url(#paint1_linear_2697_8765)"/>
<path d="M11.9072 8.69301C11.7712 8.63447 11.6633 8.52519 11.6066 8.38839C11.5499 8.25159 11.5487 8.09806 11.6034 7.96042C11.658 7.82278 11.7642 7.71188 11.8994 7.6513C12.0345 7.59072 12.188 7.58522 12.3271 7.63598C12.7898 7.8195 13.2067 8.10198 13.5487 8.46363C13.8907 8.82528 14.1495 9.25735 14.3069 9.72955L15.8247 14.2808C15.9959 14.7941 16.0426 15.3407 15.9609 15.8756C15.8793 16.4105 15.6716 16.9184 15.3551 17.3572C15.0386 17.7961 14.6223 18.1534 14.1405 18.3998C13.6588 18.6461 13.1253 18.7744 12.5842 18.774H3.41349C2.87259 18.774 2.33943 18.6455 1.85795 18.399C1.37648 18.1525 0.960469 17.7951 0.644219 17.3563C0.327969 16.9175 0.12053 16.4098 0.0389993 15.8751C-0.0425311 15.3404 0.00418126 14.7939 0.175286 14.2808L1.69199 9.72955C1.85214 9.24888 2.11728 8.80989 2.46818 8.44442C2.81908 8.07896 3.24693 7.79619 3.7207 7.61664C3.79055 7.59012 3.86495 7.57761 3.93963 7.57984C4.01432 7.58207 4.08783 7.59899 4.15598 7.62963C4.22413 7.66027 4.28557 7.70403 4.33681 7.75842C4.38804 7.81281 4.42806 7.87675 4.45459 7.9466C4.48111 8.01646 4.49361 8.09085 4.49138 8.16554C4.48915 8.24022 4.47224 8.31374 4.4416 8.38189C4.41096 8.45003 4.36719 8.51148 4.31281 8.56271C4.25842 8.61395 4.19448 8.65397 4.12462 8.68049C3.80838 8.80012 3.52277 8.98873 3.28855 9.23258C3.05434 9.47644 2.87741 9.76942 2.77063 10.0902L1.25393 14.6415C1.13999 14.9836 1.10897 15.3479 1.16343 15.7043C1.2179 16.0607 1.35628 16.3991 1.56719 16.6916C1.77809 16.9841 2.05547 17.2222 2.37648 17.3864C2.69748 17.5507 3.05291 17.6363 3.41349 17.6362H12.5865C12.9471 17.6362 13.3026 17.5504 13.6235 17.386C13.9445 17.2217 14.2218 16.9834 14.4326 16.6908C14.6434 16.3982 14.7817 16.0597 14.836 15.7032C14.8903 15.3467 14.8591 14.9824 14.7449 14.6403L13.2294 10.0891C13.1243 9.77443 12.9518 9.48654 12.7238 9.24557C12.4958 9.00461 12.2179 8.81641 11.9095 8.69414" fill="url(#paint2_linear_2697_8765)"/>
<defs>
<linearGradient id="paint0_linear_2697_8765" x1="5.4797" y1="2.19991" x2="6.64368" y2="8.12216" gradientUnits="userSpaceOnUse">
<stop stop-color="#A8D261"/>
<stop offset="1" stop-color="#29D890"/>
</linearGradient>
<linearGradient id="paint1_linear_2697_8765" x1="2.33076" y1="-3.64099" x2="6.85577" y2="13.6263" gradientUnits="userSpaceOnUse">
<stop stop-color="#A8D261"/>
<stop offset="1" stop-color="#29D890"/>
</linearGradient>
<linearGradient id="paint2_linear_2697_8765" x1="-0.856269" y1="4.59441" x2="1.18558" y2="19.4429" gradientUnits="userSpaceOnUse">
<stop stop-color="#A8D261"/>
<stop offset="1" stop-color="#29D890"/>
</linearGradient>
</defs>
</svg>
