<svg width="18" height="19" viewBox="0 0 18 19" fill="none" xmlns="http://www.w3.org/2000/svg">
<path d="M9.07328 1C6.51648 1 4.85898 2.71615 2.89888 3.34175C2.10158 3.59675 1.70293 3.7234 1.54143 3.90275C1.37993 4.08125 1.33317 4.3439 1.23882 4.8675C0.227325 10.4741 2.43732 15.6574 7.70732 17.6753C8.27257 17.8921 8.55563 18 9.07583 18C9.59603 18 9.87993 17.8912 10.446 17.6745C15.7152 15.6574 17.9226 10.4741 16.9111 4.8675C16.8168 4.3439 16.7692 4.08125 16.6077 3.9019C16.4462 3.72255 16.0484 3.5959 15.2511 3.34175C13.2901 2.71615 11.6301 1 9.07328 1Z" stroke="url(#paint0_linear_2697_8779)" stroke-width="1.2" stroke-linecap="round" stroke-linejoin="round"/>
<path d="M7.58747 7.7652C7.58747 7.7142 7.59427 7.4201 7.59597 7.0512C7.59597 6.7129 7.56707 6.3882 7.72857 6.0907C8.33207 4.8888 10.0661 5.0112 10.4945 6.2352C10.5684 6.43665 10.5735 6.7554 10.571 7.0512C10.5684 7.42775 10.5761 7.7652 10.5761 7.7652M7.66142 8.12305C6.74342 8.12305 6.28442 8.78605 6.18242 9.19405C6.08042 9.60205 6.08042 11.081 6.14162 11.693C6.34562 12.458 6.85562 12.7742 7.35542 12.8762C7.81442 12.917 9.75242 12.9017 10.3134 12.9017C11.1294 12.917 11.7414 12.611 11.9964 11.693C12.0474 11.387 12.0984 9.70405 11.9709 9.19405C11.7006 8.37805 11.0274 8.12305 10.5174 8.12305H7.66142Z" stroke="url(#paint1_linear_2697_8779)" stroke-width="1.2" stroke-linecap="round" stroke-linejoin="round"/>
<defs>
<linearGradient id="paint0_linear_2697_8779" x1="9.07506" y1="1" x2="9.07506" y2="18" gradientUnits="userSpaceOnUse">
<stop stop-color="#A8D261"/>
<stop offset="1" stop-color="#29D890"/>
</linearGradient>
<linearGradient id="paint1_linear_2697_8779" x1="9.0754" y1="5.25049" x2="9.0754" y2="12.9046" gradientUnits="userSpaceOnUse">
<stop stop-color="#A8D261"/>
<stop offset="1" stop-color="#29D890"/>
</linearGradient>
</defs>
</svg>
