<svg width="17" height="20" viewBox="0 0 17 20" fill="none" xmlns="http://www.w3.org/2000/svg">
<path d="M8.19998 8.2C10.1882 8.2 11.8 6.58822 11.8 4.6C11.8 2.61177 10.1882 1 8.19998 1C6.21175 1 4.59998 2.61177 4.59998 4.6C4.59998 6.58822 6.21175 8.2 8.19998 8.2Z" stroke="url(#paint0_linear_2697_8774)" stroke-width="2"/>
<path d="M15.4 14.9499C15.4 17.1864 15.4 18.9999 8.2 18.9999C1 18.9999 1 17.1864 1 14.9499C1 12.7134 4.2238 10.8999 8.2 10.8999C12.1762 10.8999 15.4 12.7134 15.4 14.9499Z" stroke="url(#paint1_linear_2697_8774)" stroke-width="2"/>
<defs>
<linearGradient id="paint0_linear_2697_8774" x1="4.21465" y1="-0.92" x2="6.05605" y2="8.44893" gradientUnits="userSpaceOnUse">
<stop stop-color="#A8D261"/>
<stop offset="1" stop-color="#29D890"/>
</linearGradient>
<linearGradient id="paint1_linear_2697_8774" x1="0.229358" y1="8.7399" x2="1.42502" y2="19.5549" gradientUnits="userSpaceOnUse">
<stop stop-color="#A8D261"/>
<stop offset="1" stop-color="#29D890"/>
</linearGradient>
</defs>
</svg>
