<svg width="33" height="33" viewBox="0 0 33 33" fill="none" xmlns="http://www.w3.org/2000/svg">
<path d="M4.19329 13.8334C3.61996 13.8334 3.16663 13.3801 3.16663 12.8067V9.72675C3.16663 6.11341 6.11329 3.16675 9.72663 3.16675H12.8066C13.38 3.16675 13.8333 3.62008 13.8333 4.19341C13.8333 4.76675 13.38 5.22008 12.8066 5.22008H9.72663C7.23329 5.22008 5.21996 7.24675 5.21996 9.72675V12.8067C5.21996 13.3801 4.75329 13.8334 4.19329 13.8334Z" fill="white"/>
<path d="M28.8066 13.8334C28.2466 13.8334 27.78 13.3801 27.78 12.8067V9.72675C27.78 7.23341 25.7533 5.22008 23.2733 5.22008H20.1933C19.62 5.22008 19.1666 4.75341 19.1666 4.19341C19.1666 3.63341 19.62 3.16675 20.1933 3.16675H23.2733C26.8866 3.16675 29.8333 6.11341 29.8333 9.72675V12.8067C29.8333 13.3801 29.38 13.8334 28.8066 13.8334Z" fill="white"/>
<path d="M23.2733 29.8334H21.42C20.86 29.8334 20.3933 29.3801 20.3933 28.8067C20.3933 28.2467 20.8466 27.7801 21.42 27.7801H23.2733C25.7666 27.7801 27.78 25.7534 27.78 23.2734V21.4334C27.78 20.8734 28.2333 20.4067 28.8066 20.4067C29.3666 20.4067 29.8333 20.8601 29.8333 21.4334V23.2734C29.8333 26.8867 26.8866 29.8334 23.2733 29.8334Z" fill="white"/>
<path d="M12.8066 29.8334H9.72663C6.11329 29.8334 3.16663 26.8867 3.16663 23.2734V20.1934C3.16663 19.6201 3.61996 19.1667 4.19329 19.1667C4.76663 19.1667 5.21996 19.6201 5.21996 20.1934V23.2734C5.21996 25.7667 7.24663 27.7801 9.72663 27.7801H12.8066C13.3666 27.7801 13.8333 28.2334 13.8333 28.8067C13.8333 29.3801 13.38 29.8334 12.8066 29.8334Z" fill="white"/>
<path d="M25.1133 15.4734H23.3H9.69999H7.88665C7.31332 15.4734 6.85999 15.9401 6.85999 16.5001C6.85999 17.0601 7.31332 17.5267 7.88665 17.5267H9.69999H23.3H25.1133C25.6867 17.5267 26.14 17.0601 26.14 16.5001C26.14 15.9401 25.6867 15.4734 25.1133 15.4734Z" fill="white"/>
<path d="M9.69995 19.0866V19.5266C9.69995 21.74 11.4866 23.5266 13.7 23.5266H19.3C21.5133 23.5266 23.3 21.74 23.3 19.5266V19.0866C23.3 18.9266 23.18 18.8066 23.02 18.8066H9.97995C9.81995 18.8066 9.69995 18.9266 9.69995 19.0866Z" fill="white"/>
<path d="M9.69995 13.9134V13.4734C9.69995 11.2601 11.4866 9.47339 13.7 9.47339H19.3C21.5133 9.47339 23.3 11.2601 23.3 13.4734V13.9134C23.3 14.0734 23.18 14.1934 23.02 14.1934H9.97995C9.81995 14.1934 9.69995 14.0734 9.69995 13.9134Z" fill="white"/>
</svg>
